<svg xmlns="http://www.w3.org/2000/svg" width="700" height="500" viewBox="0 0 700 500"><path fill-rule="evenodd" d="M670,0 L630,0 L530,0 C513.43,0 500,13.43 500,30 L500,60 C500,82.08 482.1,99.99 460.02,100 L430,100 C413.43,100 400,113.43 400,130 L400,360.04 C399.98,382.11 382.08,400 360,400 L340,400 C317.91,400 300,382.09 300,360 L300,360 L300,130 C300,113.43 286.56,100 270,100 L239.98,100 C217.9,99.99 200,82.08 200,60 L200,30 C200,13.43 186.57,0 170,0 L70,0 L30,0 C13.43,0 0,13.43 0,30 L0,70 L0,470 C0,486.57 13.43,500 30,500 L70,500 C86.57,500 100,486.57 100,470 L100,140 C100,117.91 117.91,100 140,100 L160,100 C182.08,100 199.98,117.89 200,139.96 L200,370 C200,386.57 213.43,400 230,400 L260,400 L260,400 C282.09,400 300,417.91 300,440 L300,470 C300,486.57 313.43,500 330,500 L370,500 C386.57,500 400,486.57 400,470 L400,440 C400,417.91 417.91,400 440,400 L440,400 L470,400 C486.56,400 500,386.57 500,370 L500,140 L500,140 C500,117.91 517.91,100 540,100 L560,100 C582.09,100 600,117.91 600,140 L600,470 C600,486.57 613.43,500 630,500 L670,500 C686.57,500 700,486.57 700,470 L700,70 L700,30 C700,13.43 686.57,0 670,0"/></svg>